HIERARCHY
ROOT Hips
{
	OFFSET -14.64140 90.27770 -84.91600
	CHANNELS 6 Xposition Yposition Zposition Zrotation Xrotation Yrotation
	JOINT Spine
	{
		OFFSET 0.00000 13.20850 -1.60436
		CHANNELS 3 Zrotation Xrotation Yrotation
		JOINT Spine1
		{
			OFFSET 0.00000 8.61716 0.00000
			CHANNELS 3 Zrotation Xrotation Yrotation
			JOINT Spine2
			{
				OFFSET 0.00000 8.61717 0.00000
				CHANNELS 3 Zrotation Xrotation Yrotation
				JOINT Spine3
				{
					OFFSET 0.00000 8.61717 0.00000
					CHANNELS 3 Zrotation Xrotation Yrotation
					JOINT Neck
					{
						OFFSET 0.00000 11.07920 1.10792
						CHANNELS 3 Zrotation Xrotation Yrotation
						JOINT Neck1
						{
							OFFSET 0.00000 7.08032 0.00000
							CHANNELS 3 Zrotation Xrotation Yrotation
							JOINT Head
							{
								OFFSET 0.00000 7.08031 0.00000
								CHANNELS 3 Zrotation Xrotation Yrotation
								End site
								{
									OFFSET 0.00000 0.00000 0.00000
								}
							}
						}
					}
					JOINT RightShoulder
					{
						OFFSET -0.01000 7.91373 5.19711
						CHANNELS 3 Zrotation Xrotation Yrotation
						JOINT RightArm
						{
							OFFSET -18.41580 0.00000 0.00000
							CHANNELS 3 Zrotation Xrotation Yrotation
							JOINT RightForeArm
							{
								OFFSET -29.11090 0.00000 0.00000
								CHANNELS 3 Zrotation Xrotation Yrotation
								JOINT RightHand
								{
									OFFSET -24.65040 0.00000 0.00000
									CHANNELS 3 Zrotation Xrotation Yrotation
									JOINT RightHandThumb1
									{
										OFFSET -5.35114 -0.85590 3.97906
										CHANNELS 3 Zrotation Xrotation Yrotation
										JOINT RightHandThumb2
										{
											OFFSET -4.52789 0.00000 0.00000
											CHANNELS 3 Zrotation Xrotation Yrotation
											JOINT RightHandThumb3
											{
												OFFSET -2.46976 0.00000 0.00000
												CHANNELS 3 Zrotation Xrotation Yrotation
												End site
												{
													OFFSET 0.00000 0.00000 0.00000
												}
											}
										}
									}
									JOINT RightHandIndex1
									{
										OFFSET -14.26970 0.00000 2.88139
										CHANNELS 3 Zrotation Xrotation Yrotation
										JOINT RightHandIndex2
										{
											OFFSET -5.48836 0.00000 0.00000
											CHANNELS 3 Zrotation Xrotation Yrotation
											JOINT RightHandIndex3
											{
												OFFSET -3.01859 0.00000 0.00000
												CHANNELS 3 Zrotation Xrotation Yrotation
												End site
												{
													OFFSET 0.00000 0.00000 0.00000
												}
											}
										}
									}
									JOINT RightHandMiddle1
									{
										OFFSET -14.26970 0.00000 -0.09147
										CHANNELS 3 Zrotation Xrotation Yrotation
										JOINT RightHandMiddle2
										{
											OFFSET -6.17441 0.00000 0.00000
											CHANNELS 3 Zrotation Xrotation Yrotation
											JOINT RightHandMiddle3
											{
												OFFSET -3.56743 0.00000 0.00000
												CHANNELS 3 Zrotation Xrotation Yrotation
												End site
												{
													OFFSET 0.00000 0.00000 0.00000
												}
											}
										}
									}
									JOINT RightHandRing1
									{
										OFFSET -12.69180 0.00000 -3.06433
										CHANNELS 3 Zrotation Xrotation Yrotation
										JOINT RightHandRing2
										{
											OFFSET -5.62556 0.00000 0.00000
											CHANNELS 3 Zrotation Xrotation Yrotation
											JOINT RightHandRing3
											{
												OFFSET -3.56744 0.00000 0.00000
												CHANNELS 3 Zrotation Xrotation Yrotation
												End site
												{
													OFFSET 0.00000 0.00000 0.00000
												}
											}
										}
									}
									JOINT RightHandPinky1
									{
										OFFSET -11.11390 0.00000 -6.03719
										CHANNELS 3 Zrotation Xrotation Yrotation
										JOINT RightHandPinky2
										{
											OFFSET -4.52789 0.00000 0.00000
											CHANNELS 3 Zrotation Xrotation Yrotation
											JOINT RightHandPinky3
											{
												OFFSET -2.46976 0.00000 0.00000
												CHANNELS 3 Zrotation Xrotation Yrotation
												End site
												{
													OFFSET 0.00000 0.00000 0.00000
												}
											}
										}
									}
								}
							}
						}
					}
					JOINT LeftShoulder
					{
						OFFSET 0.01000 7.91373 5.19711
						CHANNELS 3 Zrotation Xrotation Yrotation
						JOINT LeftArm
						{
							OFFSET 18.41580 0.00000 0.00000
							CHANNELS 3 Zrotation Xrotation Yrotation
							JOINT LeftForeArm
							{
								OFFSET 29.11090 0.00000 0.00000
								CHANNELS 3 Zrotation Xrotation Yrotation
								JOINT LeftHand
								{
									OFFSET 24.65040 0.00000 0.00000
									CHANNELS 3 Zrotation Xrotation Yrotation
									JOINT LeftHandThumb1
									{
										OFFSET 5.35114 -0.85590 3.97906
										CHANNELS 3 Zrotation Xrotation Yrotation
										JOINT LeftHandThumb2
										{
											OFFSET 4.52789 0.00000 0.00000
											CHANNELS 3 Zrotation Xrotation Yrotation
											JOINT LeftHandThumb3
											{
												OFFSET 2.46977 0.00000 0.00000
												CHANNELS 3 Zrotation Xrotation Yrotation
												End site
												{
													OFFSET 0.00000 0.00000 0.00000
												}
											}
										}
									}
									JOINT LeftHandIndex1
									{
										OFFSET 14.26970 0.00000 2.88139
										CHANNELS 3 Zrotation Xrotation Yrotation
										JOINT LeftHandIndex2
										{
											OFFSET 5.48836 0.00000 0.00000
											CHANNELS 3 Zrotation Xrotation Yrotation
											JOINT LeftHandIndex3
											{
												OFFSET 3.01859 0.00000 0.00000
												CHANNELS 3 Zrotation Xrotation Yrotation
												End site
												{
													OFFSET 0.00000 0.00000 0.00000
												}
											}
										}
									}
									JOINT LeftHandMiddle1
									{
										OFFSET 14.26970 0.00000 -0.09147
										CHANNELS 3 Zrotation Xrotation Yrotation
										JOINT LeftHandMiddle2
										{
											OFFSET 6.17440 0.00000 0.00000
											CHANNELS 3 Zrotation Xrotation Yrotation
											JOINT LeftHandMiddle3
											{
												OFFSET 3.56744 0.00000 0.00000
												CHANNELS 3 Zrotation Xrotation Yrotation
												End site
												{
													OFFSET 0.00000 0.00000 0.00000
												}
											}
										}
									}
									JOINT LeftHandRing1
									{
										OFFSET 12.69180 0.00000 -3.06433
										CHANNELS 3 Zrotation Xrotation Yrotation
										JOINT LeftHandRing2
										{
											OFFSET 5.62556 0.00000 0.00000
											CHANNELS 3 Zrotation Xrotation Yrotation
											JOINT LeftHandRing3
											{
												OFFSET 3.56744 0.00000 0.00000
												CHANNELS 3 Zrotation Xrotation Yrotation
												End site
												{
													OFFSET 0.00000 0.00000 0.00000
												}
											}
										}
									}
									JOINT LeftHandPinky1
									{
										OFFSET 11.11390 0.00000 -6.03719
										CHANNELS 3 Zrotation Xrotation Yrotation
										JOINT LeftHandPinky2
										{
											OFFSET 4.52789 0.00000 0.00000
											CHANNELS 3 Zrotation Xrotation Yrotation
											JOINT LeftHandPinky3
											{
												OFFSET 2.46976 0.00000 0.00000
												CHANNELS 3 Zrotation Xrotation Yrotation
												End site
												{
													OFFSET 0.00000 0.00000 0.00000
												}
											}
										}
									}
								}
							}
						}
					}
					JOINT pCube4
					{
						OFFSET 0.00000 10.91090 1.10792
						CHANNELS 3 Zrotation Xrotation Yrotation
						End site
						{
							OFFSET 0.00000 0.00000 0.00000
						}
					}
				}
			}
		}
	}
	JOINT RightUpLeg
	{
		OFFSET -9.98441 0.00000 0.00000
		CHANNELS 3 Zrotation Xrotation Yrotation
		JOINT RightLeg
		{
			OFFSET 0.00000 -42.11790 0.00000
			CHANNELS 3 Zrotation Xrotation Yrotation
			JOINT RightFoot
			{
				OFFSET 0.00000 -45.00020 -0.00001
				CHANNELS 3 Zrotation Xrotation Yrotation
				JOINT RightForeFoot
				{
					OFFSET 0.00000 -3.74820 0.00000
					CHANNELS 3 Zrotation Xrotation Yrotation
					JOINT RightToeBase
					{
						OFFSET 0.00000 0.06325 14.43120
						CHANNELS 3 Zrotation Xrotation Yrotation
						End site
						{
							OFFSET 0.00000 0.00000 0.00000
						}
					}
				}
			}
		}
	}
	JOINT LeftUpLeg
	{
		OFFSET 9.98441 0.00000 0.00000
		CHANNELS 3 Zrotation Xrotation Yrotation
		JOINT LeftLeg
		{
			OFFSET 0.00000 -42.11800 0.00000
			CHANNELS 3 Zrotation Xrotation Yrotation
			JOINT LeftFoot
			{
				OFFSET 0.00000 -45.00070 0.00000
				CHANNELS 3 Zrotation Xrotation Yrotation
				JOINT LeftForeFoot
				{
					OFFSET 0.00000 -3.74824 0.00000
					CHANNELS 3 Zrotation Xrotation Yrotation
					JOINT LeftToeBase
					{
						OFFSET 0.00000 0.06325 14.43110
						CHANNELS 3 Zrotation Xrotation Yrotation
						End site
						{
							OFFSET 0.00000 0.00000 0.00000
						}
					}
				}
			}
		}
	}
}
MOTION
Frames: 4
Frame Time: 0.050000
0.04523619507054693 0.024218908160704964 -0.0006245684306169892 0.043760222459800956 -0.028851882430281795 0.027121121361575226 -3.124488008216876 0.945165591398182 -0.7801865641681248 -0.7252252501980682 3.5295728027517574 0.3344651191076376 -0.8644225351773227 -2.0236381457273662 -2.1323311450263582 -0.9987822597874274 -0.07435197318022091 -0.919465123404355 -1.9816204226569687 11.578079276068689 4.798999377556955 -0.17553812038582506 -0.47153492117789064 10.302534774072317 -1.6696896678915696 -15.308888573445978 0.8853067098829253 -1.932006430802406 1.3075427946380034 -12.556790723350831 69.18824287278042 14.334992205543744 4.475898204518812 51.522761032106104 9.976959586747201 91.67108370581195 21.47180415436335 -0.1774700825786342 -4.318918966454656 4.510819850513593 -0.1768163288628545 -1.6091160624249472 -0.015830216976157555 -0.02932993352538646 -56.27242054129629 0.046821025890437906 -0.012586281194190039 -56.276681699312064 -38.754744552267184 -0.001829087802348601 0.03094506385888556 0.01654365766038046 0.04850394314887647 0.016728971597753536 -0.01285398234096957 0.026455890543186623 0.009213754858237819 -36.65034318553941 -0.005722181742895456 0.008205662132046838 -0.018692827092502834 0.045644693830084626 -0.03085676246709397 0.014452497511759444 -0.030178287601180964 -0.03869316926196807 -19.73400610166409 0.018717693606414815 -0.01839216489831668 0.01648433566515054 -0.01546794164840982 0.010710559298056919 -0.02430596790839784 0.008226140160972697 -0.0009981483925285161 24.033800309862247 -0.019370211648646073 -0.03184859418923794 28.912093205699158 0.01806195496511833 -0.012542734861305405 28.901352806713337 0.035581577066909856 -0.049816847927393146 8.281291136742917 1.9340804667717943 11.596515581913792 -67.04242641021105 12.313943051043296 -20.546754147545663 -70.93855016006195 6.975959696750713 -101.9887924627266 -21.688071300806428 1.028718290945256 -2.2576721757813822 -0.4679364138486335 0.06567800549469202 -8.160890823685758 -0.04413612836417546 -0.009385202491280357 44.534657429204664 -0.02562485466546426 -0.035090118586773106 44.607051723555294 12.468958137182065 -0.029211502585701682 0.03247165115368879 0.04545082647442842 -0.01640561682261692 -0.023859658755703488 0.0019106534809882562 -0.040185138458144885 -0.02407680264026722 11.092478720614954 -0.026856548404789612 0.01812802671223596 -0.012129419663473605 0.04137425363402281 0.015464128592506518 0.028121735488899444 -0.04835369952955947 -0.031061023264993427 4.724407044139422 -0.023293550454076054 0.044597723738185234 0.015565202954829944 -0.00020440613384584727 0.0002922922065364547 -0.006803037742462229 -0.03164618274014016 -0.006946380158696517 -5.561897956033843 0.024440712843280123 0.04522812473456596 -6.724293905671919 -0.00715211678020036 0.027958144279024582 -6.685200128619917 0.021133276749325792 -0.006094695583788207 -0.04582518173746394 -0.009741816735050054 -0.0301572378032963 8.055665873840248 3.5042504537707995 -19.21557228222687 0.03825900001325099 10.376006303092936 0.053743671944743596 -5.655831884040633 -15.64383899393214 3.2272550879697866 -0.03303243297787651 -0.004331228642391131 -0.041189958432160424 -0.00029900079175507194 4.718195693765407 -0.033740301141236155 12.469402882077143 -8.272091187072979 6.920391039392163 0.007140794662478739 46.361066321493816 0.003793334858226887 -4.306906788931869 -14.767716069805466 -3.8095107111038224 0.00943137448503554 -0.03322949621730826 -0.047251662964622965 0.02197266173116561 -10.736877361802735 0.040761675282556004 
0.011405573809426039 -0.019690199662786782 -0.020903083500330186 -0.036783467849706576 -0.029408036372656494 0.03698109330694698 -3.2245240915008337 1.0251567380073194 -0.7018827138580579 -0.8119644442631319 3.4859078868174023 0.36248260811707494 -0.8425436084566508 -1.9756548340448077 -2.1737861545383814 -0.9823051041898095 -0.07091051700200944 -0.9327872414418769 -1.956854755104807 11.474999306719806 4.75154545221326 -0.1907355292014579 -0.561643554544187 10.165456951519115 -1.5595894478808503 -15.382233245180984 0.9321852568223019 -1.9784148126516736 1.3036003661069528 -12.578991439003026 69.69082810201412 15.084144596753742 5.124708231911813 49.49135461638079 9.648556549449324 92.68857806815721 21.64343477767012 -0.2097308248027588 -4.429674520567138 4.557728745783337 -0.16106628017915756 -1.5611078806802532 -0.04178022742334951 0.03154083922996747 -56.22400601464205 -0.019418085625816758 0.030510998518483184 -56.216215385512214 -38.782396760629226 -0.023267558480614927 0.006824523133428626 -0.04876148076705393 -0.048236671848168496 -0.04782693437746946 -0.02004013875075089 -0.01665561097632652 -0.034090181065466976 -36.710251442325855 0.028004419174384156 0.011812264805587811 -0.037643167635228854 -0.026980406383788885 0.006822014151794328 0.019439566173605153 -0.025407197515587423 -0.017217890102712595 -19.791633496788112 0.02923274955524919 -0.043732229939965665 0.002600089762849386 0.019079329842659747 0.00859912034795693 0.012248085988956842 -0.02944223818714963 -0.01790949364921021 24.068902512230046 -0.007803479690759926 -0.0475041995340838 28.85471743653644 -0.01643181290212464 -0.013641124151522382 28.90934022065293 -0.013369823350126918 0.027011739404341303 8.274103999146947 1.928014187708789 11.492026651960948 -67.46566403415682 13.527119086755011 -20.700941411098636 -68.02362733482494 7.402907083757287 -100.87167213308054 -21.45959904864336 0.6107738912341802 -1.6522606885032252 -0.45416114042027594 0.02782392309886607 -8.104923910211065 0.04187819512218049 -0.0036601969880247862 44.568272003945836 -0.044477097796715825 0.030800263856185388 44.603571261845666 12.459253407390479 -0.006533312188756494 -0.019586165323424533 -0.025068256081970306 -0.02159054861027753 0.0025458441994468998 -0.0007940870204734117 -0.007230207167564664 -0.01779715637217937 11.06750075875549 0.015503333743271298 0.011730065278370545 -0.0341677364016311 0.007603459229245449 -0.02615238934432823 0.01469046925894886 0.005823567666437982 -0.02143767413788267 4.765148801025318 -0.002258008202362924 -0.029092390700221613 -0.004986904173186939 0.04904479645466587 0.04878533976292131 0.03648825094763572 -0.012357178812488582 -0.020863296299989693 -5.594707347210081 0.00472309861762046 0.03236160719217164 -6.685169894378266 -0.0287786082708528 -0.010592764262361923 -6.716469152466263 -0.042761086107154005 -0.003702577231837846 0.030909976667756335 0.019298694156273048 -0.03913829798298375 8.016929529070339 3.4640444127070857 -19.21404770105767 -0.0343389901393378 10.384287497385573 0.013094447948431193 -5.633663896175934 -15.650779748456532 3.217171252586258 0.048988276429200624 0.010976566959188538 0.03308982776975208 -0.01591165497642017 4.676250444793226 -0.043260895772824035 12.498938251764551 -8.253438017206214 6.890465336740684 -0.04897423401964916 46.42873193476369 -0.0011820558305732436 -4.363133672885402 -14.75294195137858 -3.865505868479038 -0.02100370116139171 -4.2150768341848364e-05 -0.04308194919203159 0.018087300604412285 -10.730074284336256 0.01964917291218709 
0.026013857279179084 -0.03231172015361703 -0.039364224500251045 -0.01558174662361666 0.013966336029720278 -0.018976192199115616 -3.2556144248837553 0.9982821172984893 -0.7248809992456382 -0.7939290929439621 3.4894520298345864 0.3163626012250315 -0.8849822219786981 -1.9951831422092583 -2.3011840061581026 -0.9428629423181314 -0.10594359662703297 -0.9579435245435605 -1.9490415775663363 11.44184177785535 4.637528366733948 -0.2140379630388472 -0.5358626971634511 9.976428672549217 -1.5523639036273769 -15.485322476235378 0.8542471337310149 -2.0885907053149664 1.361027199315093 -12.579871535161644 69.60079376404408 15.138339961573084 5.296959318653199 47.83153828499383 8.9899536694604 94.01165863887977 22.046000943967236 -0.24451360703142658 -4.542793089110067 4.492988044614657 -0.10597595892676684 -1.6053767335460112 -0.02960555037298946 0.016637287826744927 -56.27033985967805 -0.014052386692673691 -0.0325717393482457 -56.21666650636528 -38.743467508134295 0.0006751000648041975 -0.03579594548230282 0.036872722946901214 0.03214052960043852 -0.005900008546468685 -0.024437741699890936 0.029905855519909152 0.008698294220123939 -36.64586967887597 0.03885018447298377 -0.0004538241887112872 -0.022660540375438437 0.023333921271811095 0.017575432289248443 0.043037398695485694 0.005633894639093676 -0.03212134064309324 -19.75193857897156 -0.0149052460535684 0.005539546042356442 -0.02398164889502951 -0.02516474401495491 0.023148765814901575 -0.02620285358555237 -0.02476440216648038 0.013003659270927762 24.035202205185858 0.009251252248785409 0.04918872537459935 28.881745133310698 -0.01416950646028689 -0.0011634474555782608 28.84490739678283 0.03082511049969531 -0.021908408378165538 8.359448725475769 1.9197537022812583 11.483393318613594 -67.6600482934112 13.886120333022273 -21.126233240199902 -66.31316835826858 7.402608363976913 -99.63450233047601 -21.105310025858472 -0.04472175702765154 -0.9697472814009883 -0.47444650166723684 0.059226934839575134 -8.143175366970214 0.014709045616776457 0.004707926622962693 44.58200037092344 -0.0019216577056450758 -0.014400040670202069 44.531981265384026 12.45695206552972 0.010032863122900752 0.03090603467284524 -0.04768629471805558 -0.028789088654092528 -0.030374149118847723 -0.012015374826157867 0.04338006625713729 -0.0213085737757265 11.132385570734282 0.03291483183918067 0.025537903522348453 -0.03244750814338217 -0.007473803930479901 0.023831570061027763 -0.0009814238920174386 0.033750349818175034 0.006667249095942916 4.774888024037996 0.021008005506055204 -0.020044967108973685 -0.049783005119758916 0.022330864761934924 0.04181631172748239 -0.02930776575114609 0.046726579842407856 0.023584412812264283 -5.622216576090427 -0.03094751361405048 0.04514712029218185 -6.7350510794668015 0.03789269839210368 -0.014388053869473333 -6.761039042767744 -0.021117592678096354 -0.03611041179521961 -0.02649045562565532 -0.018503422582653386 0.028922144403768012 8.038014681740469 3.491202179430954 -19.223924610136557 0.029496717920090877 10.431335749515261 -0.007343453733353444 -5.574636686705586 -15.691426501605717 3.236529403320506 -0.03407193630406999 0.022504173972786024 0.012604349463974918 -0.01772148769286821 4.663988660123734 -0.025486989730851353 12.43193741790222 -8.242628678965689 6.915288135626361 -0.04243109383127712 46.401640723747114 -0.03608914026601783 -4.373561020462843 -14.714293860158373 -3.8452988295347357 0.019085938970755795 -0.04055587842477675 -0.04738317935626283 0.031197972669823017 -10.773642101483668 0.03677099026943357 
-0.024486524605240475 -0.00031824607110775695 0.023455533380623173 -0.040937872848589324 0.029195727942818668 0.02538633743847764 -3.100764218224555 0.8487964572182591 -0.7561069435630026 -0.7518135599402251 3.398843348127888 0.2788691329222103 -0.8514921407822286 -2.023595894373004 -2.397723881014641 -0.9914363355114357 -0.17547426099464733 -0.9423740830733742 -1.8662653716217317 11.461135613578437 4.4858620960403455 -0.1290020496019109 -0.5596486100699348 9.92133972282458 -1.510338461416537 -15.456927298434216 0.8597701467893031 -2.3979196208600824 1.3973742191811516 -12.73021636343363 68.95965973212009 13.985713039924331 5.410554830593919 47.71892409394917 8.369877285762543 95.26821833935452 22.668832051939823 -0.2883109296094108 -4.514262701391107 4.55151957936214 -0.0847054922054668 -1.6430516774419965 0.046070414722405625 -0.024676594060367207 -56.283222552020106 0.01203201972115831 0.010265752283372065 -56.19650151026175 -38.77907324403601 -0.029234166514733345 -0.006230484207184491 -0.010072846797076129 -0.003366959131350821 0.029288157773556762 0.0013234368415544592 -0.015573537186748466 0.005974795887578822 -36.657913916343 -0.016299153187343717 -0.045666294818602196 0.03229997972075966 0.007605661815833433 0.01990383531105164 0.04051425270378987 0.002485072583236567 -0.018041714359132797 -19.727457234262392 -0.013456370733757187 -0.01874710654469878 -0.02194177454073146 0.02198519086126851 0.015901884308254264 0.0007926028843095776 -0.018965871780444846 0.03665518719604834 24.020354123540525 -0.010517040953367982 0.022307718735570744 28.85684107108143 0.04559666857500911 -0.028056951333745507 28.896993597737605 -0.003927928724274935 0.025649719950833875 8.566726255970943 1.9547770039328538 11.397506041629612 -67.62349621249999 13.55013657633726 -21.688300917620868 -67.29038042267686 7.110327745755998 -99.2191458558911 -21.165223943314142 -0.7738562881049568 -0.36727530868050323 -0.42870273634820355 0.08568915231115493 -8.143549286294354 0.006761588224528002 0.035211964575895954 44.55099076855989 -0.003999293701757553 -0.012891234843062087 44.52705723810633 12.455163360862379 -0.01936116311586802 -0.0048503965823569065 -0.04227085259227613 -0.03726921678169376 0.011302560442575356 0.02219774420632543 -0.017809848509515003 0.03863353125880196 11.114257165981334 -0.004516883586385505 -0.010756904221738703 0.018986664384628964 -0.02994107664599237 0.006892523473231275 0.0025611944635971972 0.001130319312581901 -0.017893615501065715 4.735034429417581 -0.017921591837482563 -0.046189787222497315 -0.016437850200471282 0.0011619822126353423 -0.007973124887444342 0.03427940628060138 -0.02237926805710197 -0.006531073289031875 -5.594807622081671 0.037743450283610085 -0.027805137943533537 -6.690093324762158 -0.04303185010523671 0.02196083123205532 -6.703968823415838 -0.018465070224692064 -0.0029323554097252466 -0.007212921463226474 0.0033788526297380277 0.039789122131741364 8.069771468573277 3.513576448065607 -19.181898119181003 0.01800643517932294 10.404631044027063 0.03445639835722588 -5.5761308264603 -15.704883852738996 3.2256522244834436 0.02519100751719431 -0.0004653020246441845 0.017959380047421612 0.022181854720221255 4.71215627850289 0.00037901712516397407 12.499389133768146 -8.23146630651294 6.9052041113089375 0.01570468778557712 46.40827039109204 -0.020961279822041944 -4.371150471042022 -14.705412731743495 -3.827706261819981 0.021656153207451817 -0.006048327498507243 -0.02382674326671162 0.017311467461860786 -10.713274797457757 0.04555978866745334 
